<svg xmlns="http://www.w3.org/2000/svg" viewBox="0 0 192 192">
  <defs>
    <linearGradient id="grad1" x1="0%" y1="0%" x2="100%" y2="100%">
      <stop offset="0%" style="stop-color:#003B5C;stop-opacity:1" />
      <stop offset="50%" style="stop-color:#0077A8;stop-opacity:1" />
      <stop offset="100%" style="stop-color:#00A9E0;stop-opacity:1" />
    </linearGradient>
  </defs>
  <rect width="192" height="192" rx="32" fill="url(#grad1)"/>
  <g transform="translate(48, 48)" fill="white">
    <path d="M48 8l4.32 12.96L66 24l-13.68 3.04L48 40l-4.32-12.96L30 24l13.68-3.04L48 8z" opacity="0.9"/>
    <path d="M28 32l2.88 8.64L40 43l-9.12 2.36L28 54l-2.88-8.64L16 43l9.12-2.36L28 32z" opacity="0.7"/>
    <path d="M68 40l2.88 8.64L80 51l-9.12 2.36L68 62l-2.88-8.64L56 51l9.12-2.36L68 40z" opacity="0.7"/>
    <path d="M48 56l3.6 10.8L63 70l-11.4 3.2L48 84l-3.6-10.8L33 70l11.4-3.2L48 56z" opacity="0.8"/>
  </g>
</svg>

